<?xml version="1.0" encoding="UTF-8" standalone="no"?>
<!-- Generator: Adobe Illustrator 23.0.2, SVG Export Plug-In . SVG Version: 6.00 Build 0)  -->

<svg
   version="1.1"
   id="Layer_1"
   x="0px"
   y="0px"
   viewBox="0 0 595.28 841.89"
   style="enable-background:new 0 0 595.28 841.89;"
   xml:space="preserve"
   sodipodi:docname="selector.svg"
   inkscape:version="1.3 (0e150ed6c4, 2023-07-21)"
   inkscape:export-filename="selector.png"
   inkscape:export-xdpi="96"
   inkscape:export-ydpi="96"
   xmlns:inkscape="http://www.inkscape.org/namespaces/inkscape"
   xmlns:sodipodi="http://sodipodi.sourceforge.net/DTD/sodipodi-0.dtd"
   xmlns="http://www.w3.org/2000/svg"
   xmlns:svg="http://www.w3.org/2000/svg"><defs
   id="defs524" /><sodipodi:namedview
   id="namedview524"
   pagecolor="#ffffff"
   bordercolor="#000000"
   borderopacity="0.25"
   inkscape:showpageshadow="2"
   inkscape:pageopacity="0.0"
   inkscape:pagecheckerboard="0"
   inkscape:deskcolor="#d1d1d1"
   inkscape:zoom="0.97344872"
   inkscape:cx="418.61476"
   inkscape:cy="368.27826"
   inkscape:window-width="3440"
   inkscape:window-height="1373"
   inkscape:window-x="-9"
   inkscape:window-y="-9"
   inkscape:window-maximized="1"
   inkscape:current-layer="g310" />&#10;<style
   type="text/css"
   id="style1">&#10;	.st0{fill:url(#SVGID_1_);stroke:#936037;stroke-width:8;stroke-miterlimit:10;}&#10;	.st1{fill:url(#SVGID_2_);stroke:#432918;stroke-width:4;stroke-miterlimit:10;}&#10;	.st2{clip-path:url(#SVGID_4_);}&#10;	.st3{fill:none;stroke:#7D4E24;stroke-width:4;stroke-miterlimit:10;}&#10;	.st4{fill:none;stroke:#936037;stroke-width:4;stroke-miterlimit:10;}&#10;	.st5{fill:#E7DBD0;stroke:#C9A18F;stroke-width:8;stroke-miterlimit:10;}&#10;	.st6{fill:none;stroke:#9D9D9C;stroke-width:4;stroke-miterlimit:10;}&#10;	.st7{fill:url(#SVGID_7_);stroke:#936037;stroke-width:8;stroke-miterlimit:10;}&#10;	.st8{fill:url(#SVGID_8_);stroke:#432918;stroke-width:4;stroke-miterlimit:10;}&#10;	.st9{clip-path:url(#SVGID_10_);}&#10;	.st10{fill:none;stroke:#7D4E24;stroke-width:8;stroke-miterlimit:10;}&#10;	.st11{fill:none;stroke:#9D9D9C;stroke-width:8;stroke-miterlimit:10;}&#10;	.st12{fill:none;stroke:#FFED00;stroke-width:2;stroke-miterlimit:10;}&#10;	.st13{fill:none;stroke:#FFED00;stroke-miterlimit:10;}&#10;	.st14{fill:#FFED00;}&#10;	.st15{fill:#936037;}&#10;	.st16{fill:#FFFFFF;}&#10;	.st17{fill:url(#SVGID_13_);stroke:#936037;stroke-width:8;stroke-miterlimit:10;}&#10;	.st18{fill:none;stroke:#000000;stroke-width:0.25;stroke-miterlimit:10;}&#10;	.st19{fill:#432918;}&#10;	.st20{fill:url(#SVGID_14_);stroke:#936037;stroke-width:8;stroke-miterlimit:10;}&#10;	.st21{fill:url(#SVGID_15_);stroke:#936037;stroke-width:8;stroke-miterlimit:10;}&#10;	.st22{fill:#EAD277;stroke:#CCAE5A;stroke-width:8;stroke-miterlimit:10;}&#10;	.st23{fill:none;stroke:#000000;stroke-width:0.5;stroke-miterlimit:10;}&#10;	.st24{fill:url(#SVGID_16_);stroke:#936037;stroke-width:8;stroke-miterlimit:10;}&#10;	.st25{fill:url(#SVGID_17_);stroke:#936037;stroke-width:8;stroke-miterlimit:10;}&#10;	.st26{opacity:0.4;}&#10;	.st27{fill:url(#SVGID_18_);stroke:#936037;stroke-width:8;stroke-miterlimit:10;}&#10;	.st28{fill:url(#SVGID_19_);stroke:#936037;stroke-width:8;stroke-miterlimit:10;}&#10;	.st29{fill:#7B1909;stroke:#431200;stroke-width:14;stroke-miterlimit:10;}&#10;	.st30{fill:none;stroke:#E42313;stroke-width:15;stroke-miterlimit:10;}&#10;	.st31{fill:#431200;}&#10;	.st32{fill:url(#SVGID_20_);stroke:#936037;stroke-width:8;stroke-miterlimit:10;}&#10;	.st33{fill:#5F0F00;stroke:#B52B09;stroke-width:14;stroke-miterlimit:10;}&#10;	.st34{fill:none;stroke:#4E0D00;stroke-width:15;stroke-miterlimit:10;}&#10;	.st35{fill:#B52B09;}&#10;	.st36{fill:url(#SVGID_21_);stroke:#936037;stroke-width:8;stroke-miterlimit:10;}&#10;	.st37{fill:url(#SVGID_22_);}&#10;	.st38{fill:#432918;stroke:#936037;stroke-width:8;stroke-miterlimit:10;}&#10;	.st39{fill:#936037;stroke:#936037;stroke-width:2;stroke-miterlimit:10;}&#10;	.st40{opacity:0.4;fill:none;stroke:#FFED00;stroke-width:2;stroke-miterlimit:10;}&#10;</style>&#10;<radialGradient
   id="SVGID_1_"
   cx="-630.1479"
   cy="39.1915"
   r="97.0093"
   gradientUnits="userSpaceOnUse">&#10;	<stop
   offset="0.3979"
   style="stop-color:#683C11"
   id="stop1" />&#10;	<stop
   offset="0.5588"
   style="stop-color:#633913"
   id="stop2" />&#10;	<stop
   offset="0.8068"
   style="stop-color:#533217"
   id="stop3" />&#10;	<stop
   offset="1"
   style="stop-color:#432918"
   id="stop4" />&#10;</radialGradient>&#10;&#10;<linearGradient
   id="SVGID_2_"
   gradientUnits="userSpaceOnUse"
   x1="-532.1054"
   y1="118.9681"
   x2="-298.6006"
   y2="118.9681">&#10;	<stop
   offset="0"
   style="stop-color:#683C11"
   id="stop5" />&#10;	<stop
   offset="0.1615"
   style="stop-color:#603710"
   id="stop6" />&#10;	<stop
   offset="0.4112"
   style="stop-color:#4A2B0C"
   id="stop7" />&#10;	<stop
   offset="0.716"
   style="stop-color:#271706"
   id="stop8" />&#10;	<stop
   offset="1"
   style="stop-color:#000000"
   id="stop9" />&#10;</linearGradient>&#10;&#10;&#10;&#10;&#10;&#10;&#10;&#10;&#10;<radialGradient
   id="SVGID_7_"
   cx="-562.3231"
   cy="421.6383"
   r="68.1652"
   gradientTransform="matrix(0.0248 -0.9999 5.5275 0.0256 -2836.5574 -151.4514)"
   gradientUnits="userSpaceOnUse">&#10;	<stop
   offset="0.4282"
   style="stop-color:#683C11"
   id="stop17" />&#10;	<stop
   offset="0.5811"
   style="stop-color:#633913"
   id="stop18" />&#10;	<stop
   offset="0.8166"
   style="stop-color:#533217"
   id="stop19" />&#10;	<stop
   offset="1"
   style="stop-color:#432918"
   id="stop20" />&#10;</radialGradient>&#10;&#10;<linearGradient
   id="SVGID_8_"
   gradientUnits="userSpaceOnUse"
   x1="-733.515"
   y1="311.4575"
   x2="-184.3203"
   y2="311.4575">&#10;	<stop
   offset="0"
   style="stop-color:#683C11"
   id="stop21" />&#10;	<stop
   offset="0.1615"
   style="stop-color:#603710"
   id="stop22" />&#10;	<stop
   offset="0.4112"
   style="stop-color:#4A2B0C"
   id="stop23" />&#10;	<stop
   offset="0.716"
   style="stop-color:#271706"
   id="stop24" />&#10;	<stop
   offset="1"
   style="stop-color:#000000"
   id="stop25" />&#10;</linearGradient>&#10;&#10;&#10;&#10;&#10;&#10;&#10;&#10;&#10;&#10;&#10;&#10;&#10;&#10;&#10;&#10;&#10;<radialGradient
   id="SVGID_13_"
   cx="-173.2098"
   cy="684.2808"
   r="97.0093"
   gradientUnits="userSpaceOnUse">&#10;	<stop
   offset="0.3979"
   style="stop-color:#683C11"
   id="stop145" />&#10;	<stop
   offset="0.5588"
   style="stop-color:#633913"
   id="stop146" />&#10;	<stop
   offset="0.8068"
   style="stop-color:#533217"
   id="stop147" />&#10;	<stop
   offset="1"
   style="stop-color:#432918"
   id="stop148" />&#10;</radialGradient>&#10;&#10;&#10;&#10;&#10;&#10;&#10;&#10;&#10;&#10;&#10;<radialGradient
   id="SVGID_14_"
   cx="-198.999"
   cy="235.2234"
   r="97.0093"
   gradientUnits="userSpaceOnUse">&#10;	<stop
   offset="0.3979"
   style="stop-color:#683C11"
   id="stop154" />&#10;	<stop
   offset="0.5588"
   style="stop-color:#633913"
   id="stop155" />&#10;	<stop
   offset="0.8068"
   style="stop-color:#533217"
   id="stop156" />&#10;	<stop
   offset="1"
   style="stop-color:#432918"
   id="stop157" />&#10;</radialGradient>&#10;&#10;&#10;&#10;&#10;&#10;&#10;&#10;&#10;&#10;&#10;&#10;&#10;&#10;&#10;<g
   id="g310"
   transform="translate(351.32821,18.490959)">&#10;	&#10;		<radialGradient
   id="SVGID_18_"
   cx="739.09308"
   cy="338.7236"
   r="81.268799"
   gradientTransform="matrix(3.0132,0,0,1,-2319.404,-272.0941)"
   gradientUnits="userSpaceOnUse">&#10;		<stop
   offset="0.4957"
   style="stop-color:#683C11"
   id="stop265" />&#10;		<stop
   offset="0.6305"
   style="stop-color:#633913"
   id="stop266" />&#10;		<stop
   offset="0.8382"
   style="stop-color:#533217"
   id="stop267" />&#10;		<stop
   offset="1"
   style="stop-color:#432918"
   id="stop268" />&#10;	</radialGradient>&#10;	<rect
   x="-342.46436"
   y="-12.874094"
   class="st27"
   width="500.19"
   height="159"
   id="rect268"
   style="fill:url(#SVGID_18_)" />&#10;	<line
   class="st22"
   x1="-346.72437"
   y1="-12.784098"
   x2="163.6257"
   y2="-12.784098"
   id="line268" />&#10;	&#10;		<rect
   x="114.5041"
   y="102.23902"
   transform="rotate(-45)"
   class="st15"
   width="11.889886"
   height="5.9599428"
   id="rect269"
   style="stroke-width:0.99999" />&#10;	&#10;		<rect
   x="245.32318"
   y="-239.16559"
   transform="rotate(-135)"
   class="st15"
   width="11.889886"
   height="5.9599428"
   id="rect270"
   style="stroke-width:0.99999" />&#10;	<line
   class="st23"
   x1="161.61569"
   y1="-16.874094"
   x2="153.18564"
   y2="-8.4441004"
   id="line270" />&#10;	&#10;	<line
   class="st23"
   x1="-338.01434"
   y1="-8.0240879"
   x2="-348.31433"
   y2="-18.314096"
   id="line271" />&#10;	&#10;		&#10;	&#10;		<rect
   x="339.71213"
   y="138.65047"
   transform="rotate(135)"
   class="st15"
   width="11.889886"
   height="5.9599428"
   id="rect273"
   style="stroke-width:0.99999" />&#10;	<line
   class="st23"
   x1="-346.60431"
   y1="150.36591"
   x2="-338.17432"
   y2="141.94592"
   id="line273" />&#10;	&#10;		&#10;	&#10;		&#10;	&#10;		&#10;	&#10;	<line
   class="st23"
   x1="162.8757"
   y1="152.6459"
   x2="153.35568"
   y2="141.62592"
   id="line276" />&#10;	&#10;		&#10;	&#10;	&#10;		&#10;	<g
   class="st26"
   id="g293"
   transform="translate(-985.63431,-272.0941)">&#10;		<line
   class="st12"
   x1="1125.6"
   y1="339"
   x2="1083.71"
   y2="339"
   id="line278" />&#10;		<path
   class="st12"
   d="m 1100.53,350.77 c -0.83,-0.1 -3.38,-0.31 -5,1.16 -2.44,2.21 -1,6.61 0.71,8.97 2.51,3.45 8.02,5.83 11.61,3.98 3.11,-1.6 3.47,-5.69 3.75,-8.97 0.17,-1.97 0.36,-4.47 -1.07,-7.14 -1.27,-2.37 -3.15,-3.62 -5.18,-4.98 -2.57,-1.71 -5.2,-2.57 -8.4,-3.65 -1.24,-0.42 -2.29,-0.73 -3.04,-0.94"
   id="path278" />&#10;		<path
   class="st12"
   d="m 1099.82,350.64 c 0.74,0.04 1.9,0.21 3.04,0.95 0.68,0.44 2.01,1.31 2.08,2.68 0.05,1 -0.59,1.77 -0.95,2.2 -0.76,0.91 -1.71,1.26 -2.08,1.37 -0.41,0.12 -0.76,0.16 -1.01,0.18"
   id="path279" />&#10;		<line
   class="st13"
   x1="1134.71"
   y1="338.19"
   x2="1119.21"
   y2="353.69"
   id="line279" />&#10;		<line
   class="st13"
   x1="1119.39"
   y1="338.28"
   x2="1119.39"
   y2="353.20001"
   id="line280" />&#10;		<line
   class="st13"
   x1="1134.7"
   y1="339.14999"
   x2="1119.14"
   y2="323.79001"
   id="line281" />&#10;		<line
   class="st13"
   x1="1119.4301"
   y1="339.20001"
   x2="1119.3199"
   y2="324.28"
   id="line282" />&#10;		<g
   id="g283">&#10;			<path
   class="st12"
   d="m 1100.48,327.78 c -0.83,0.09 -3.38,0.26 -4.99,-1.23 -2.41,-2.24 -0.91,-6.62 0.83,-8.96 2.56,-3.42 8.1,-5.73 11.66,-3.84 3.09,1.64 3.39,5.74 3.64,9.01 0.15,1.97 0.3,4.48 -1.16,7.12 -1.3,2.36 -3.2,3.58 -5.24,4.91 -2.59,1.68 -5.23,2.51 -8.44,3.54 -1.25,0.4 -2.3,0.7 -3.05,0.9"
   id="path282" />&#10;			<path
   class="st12"
   d="m 1099.76,327.9 c 0.74,-0.03 1.9,-0.19 3.05,-0.91 0.68,-0.43 2.03,-1.28 2.12,-2.65 0.06,-1 -0.57,-1.78 -0.92,-2.22 -0.75,-0.92 -1.69,-1.28 -2.07,-1.4 -0.4,-0.13 -0.76,-0.17 -1.01,-0.19"
   id="path283" />&#10;		</g>&#10;		&#10;			<rect
   x="1107.49"
   y="337.81"
   transform="rotate(90,1120.6649,338.81725)"
   class="st14"
   width="26.35"
   height="2.01"
   id="rect283" />&#10;		&#10;			<rect
   x="1110.4399"
   y="337.85999"
   transform="rotate(90,1122.1835,338.6833)"
   class="st14"
   width="23.49"
   height="1.65"
   id="rect284" />&#10;		&#10;			<rect
   x="1113.0699"
   y="337.98999"
   transform="rotate(90,1123.5235,338.8619)"
   class="st14"
   width="20.9"
   height="1.74"
   id="rect285" />&#10;		&#10;			<rect
   x="1115.17"
   y="337.76999"
   transform="rotate(90,1124.3721,338.81725)"
   class="st14"
   width="18.4"
   height="2.0999999"
   id="rect286" />&#10;		&#10;			<rect
   x="1117.38"
   y="337.97"
   transform="rotate(90,1125.6227,338.8396)"
   class="st14"
   width="16.48"
   height="1.74"
   id="rect287" />&#10;		&#10;			<rect
   x="1119.9301"
   y="337.51999"
   transform="rotate(90,1126.8064,338.72795)"
   class="st14"
   width="13.76"
   height="2.4100001"
   id="rect288" />&#10;		&#10;			<rect
   x="1122.23"
   y="337.45001"
   transform="rotate(90,1127.6327,338.86195)"
   class="st14"
   width="10.81"
   height="2.8099999"
   id="rect289" />&#10;		&#10;			<rect
   x="1124.77"
   y="337.85999"
   transform="rotate(90,1129.1513,338.6833)"
   class="st14"
   width="8.75"
   height="1.65"
   id="rect290" />&#10;		&#10;			<rect
   x="1126.87"
   y="338.04001"
   transform="rotate(90,1130.3573,338.72795)"
   class="st14"
   width="6.9699998"
   height="1.38"
   id="rect291" />&#10;		&#10;			<rect
   x="1129.0601"
   y="337.76999"
   transform="rotate(90,1131.4516,338.43765)"
   class="st14"
   width="4.7800002"
   height="1.34"
   id="rect292" />&#10;		&#10;			<rect
   x="1130.89"
   y="337.67999"
   transform="rotate(90,1132.4788,338.5716)"
   class="st14"
   width="3.1700001"
   height="1.79"
   id="rect293" />&#10;	</g>&#10;	<g
   class="st26"
   id="g308"
   transform="translate(-985.63431,-272.0941)">&#10;		<line
   class="st12"
   x1="660.53003"
   y1="338.16"
   x2="702.41998"
   y2="338.16"
   id="line293" />&#10;		<path
   class="st12"
   d="m 685.6,326.39 c 0.83,0.1 3.38,0.31 5,-1.16 2.44,-2.21 1,-6.61 -0.71,-8.97 -2.51,-3.45 -8.02,-5.83 -11.61,-3.98 -3.11,1.6 -3.47,5.69 -3.75,8.97 -0.17,1.97 -0.36,4.47 1.07,7.14 1.27,2.37 3.15,3.62 5.18,4.98 2.57,1.71 5.2,2.57 8.4,3.65 1.24,0.42 2.29,0.73 3.04,0.94"
   id="path293" />&#10;		<path
   class="st12"
   d="m 686.31,326.52 c -0.74,-0.04 -1.9,-0.21 -3.04,-0.95 -0.68,-0.44 -2.01,-1.31 -2.08,-2.68 -0.05,-1 0.59,-1.77 0.95,-2.2 0.76,-0.91 1.71,-1.26 2.08,-1.37 0.41,-0.12 0.76,-0.16 1.01,-0.18"
   id="path294" />&#10;		<line
   class="st13"
   x1="651.41998"
   y1="338.95999"
   x2="666.91998"
   y2="323.47"
   id="line294" />&#10;		<line
   class="st13"
   x1="666.73999"
   y1="338.88"
   x2="666.73999"
   y2="323.95999"
   id="line295" />&#10;		<line
   class="st13"
   x1="651.42999"
   y1="338"
   x2="666.98999"
   y2="353.35999"
   id="line296" />&#10;		<line
   class="st13"
   x1="666.70001"
   y1="337.95999"
   x2="666.81"
   y2="352.87"
   id="line297" />&#10;		<g
   id="g298">&#10;			<path
   class="st12"
   d="m 685.65,349.38 c 0.83,-0.09 3.38,-0.26 4.99,1.23 2.41,2.24 0.91,6.62 -0.83,8.96 -2.56,3.42 -8.1,5.73 -11.66,3.84 -3.09,-1.64 -3.39,-5.74 -3.64,-9.01 -0.15,-1.97 -0.3,-4.48 1.16,-7.12 1.3,-2.36 3.2,-3.58 5.24,-4.91 2.59,-1.68 5.23,-2.51 8.44,-3.54 1.25,-0.4 2.3,-0.7 3.05,-0.9"
   id="path297" />&#10;			<path
   class="st12"
   d="m 686.37,349.26 c -0.74,0.03 -1.9,0.19 -3.05,0.91 -0.68,0.43 -2.03,1.28 -2.12,2.65 -0.06,1 0.57,1.78 0.92,2.22 0.75,0.92 1.69,1.28 2.07,1.4 0.4,0.13 0.76,0.17 1.01,0.19"
   id="path298" />&#10;		</g>&#10;		&#10;			<rect
   x="652.28998"
   y="337.32999"
   transform="rotate(-90,665.46525,338.33955)"
   class="st14"
   width="26.35"
   height="2.01"
   id="rect298" />&#10;		&#10;			<rect
   x="652.20001"
   y="337.64999"
   transform="rotate(-90,663.94665,338.47355)"
   class="st14"
   width="23.49"
   height="1.65"
   id="rect299" />&#10;		&#10;			<rect
   x="652.15997"
   y="337.42001"
   transform="rotate(-90,662.6067,338.2949)"
   class="st14"
   width="20.9"
   height="1.74"
   id="rect300" />&#10;		&#10;			<rect
   x="652.56"
   y="337.29001"
   transform="rotate(-90,661.75805,338.33955)"
   class="st14"
   width="18.4"
   height="2.0999999"
   id="rect301" />&#10;		&#10;			<rect
   x="652.27002"
   y="337.45001"
   transform="rotate(-90,660.5074,338.3172)"
   class="st14"
   width="16.48"
   height="1.74"
   id="rect302" />&#10;		&#10;			<rect
   x="652.45001"
   y="337.22"
   transform="rotate(-90,659.32385,338.42885)"
   class="st14"
   width="13.76"
   height="2.4100001"
   id="rect303" />&#10;		&#10;			<rect
   x="653.09003"
   y="336.89001"
   transform="rotate(-90,658.4975,338.2949)"
   class="st14"
   width="10.81"
   height="2.8099999"
   id="rect304" />&#10;		&#10;			<rect
   x="652.59998"
   y="337.64999"
   transform="rotate(-90,656.97895,338.47355)"
   class="st14"
   width="8.75"
   height="1.65"
   id="rect305" />&#10;		&#10;			<rect
   x="652.28998"
   y="337.73999"
   transform="rotate(-90,655.77295,338.42885)"
   class="st14"
   width="6.9699998"
   height="1.38"
   id="rect306" />&#10;		&#10;			<rect
   x="652.28998"
   y="338.04999"
   transform="rotate(-90,654.6787,338.7192)"
   class="st14"
   width="4.7800002"
   height="1.34"
   id="rect307" />&#10;		&#10;			<rect
   x="652.07001"
   y="337.69"
   transform="rotate(-90,653.6514,338.5852)"
   class="st14"
   width="3.1700001"
   height="1.79"
   id="rect308" />&#10;	</g>&#10;	&#10;		&#10;	&#10;		&#10;	&#10;		&#10;</g>&#10;<radialGradient
   id="SVGID_19_"
   cx="508.6606"
   cy="1010.8726"
   r="81.2688"
   gradientTransform="matrix(3.0132 0 0 1 -1333.7697 0)"
   gradientUnits="userSpaceOnUse">&#10;	<stop
   offset="0.4957"
   style="stop-color:#683C11"
   id="stop310" />&#10;	<stop
   offset="0.6305"
   style="stop-color:#633913"
   id="stop311" />&#10;	<stop
   offset="0.8382"
   style="stop-color:#533217"
   id="stop312" />&#10;	<stop
   offset="1"
   style="stop-color:#432918"
   id="stop313" />&#10;</radialGradient>&#10;&#10;&#10;&#10;&#10;&#10;&#10;&#10;&#10;&#10;&#10;&#10;&#10;&#10;&#10;&#10;&#10;&#10;&#10;&#10;&#10;&#10;&#10;&#10;&#10;&#10;&#10;&#10;&#10;&#10;&#10;&#10;&#10;&#10;&#10;&#10;&#10;&#10;&#10;<linearGradient
   id="SVGID_22_"
   gradientUnits="userSpaceOnUse"
   x1="1527.2675"
   y1="42.0673"
   x2="1526.5692"
   y2="234.554">&#10;	<stop
   offset="0"
   style="stop-color:#683C11"
   id="stop376" />&#10;	<stop
   offset="0.1705"
   style="stop-color:#633913"
   id="stop377" />&#10;	<stop
   offset="0.4331"
   style="stop-color:#533217"
   id="stop378" />&#10;	<stop
   offset="0.6376"
   style="stop-color:#432918"
   id="stop379" />&#10;</linearGradient>&#10;&#10;&#10;&#10;&#10;&#10;</svg>
